<svg width="250" height="142" viewBox="0 0 250 142" fill="none" xmlns="http://www.w3.org/2000/svg">
<path d="M-0.5 141.5C8 138.333 28.5 135 43.5 104C58.1173 73.791 85.5 73.5 103 86.5C124.288 102.314 163 127 196 82C222 46.5455 214 11.5 250 1.5" stroke="#2BD45D" stroke-width="3"/>
<path d="M43.5 104C28.5 135 8 138.333 -0.5 141.5H250V1.5C214 11.5 222 46.5455 196 82C163 127 124.288 102.314 103 86.5C85.5 73.5 58.1173 73.791 43.5 104Z" fill="url(#paint0_linear_2_10)"/>
<defs>
<linearGradient id="paint0_linear_2_10" x1="140.5" y1="51.5" x2="161.587" y2="154.458" gradientUnits="userSpaceOnUse">
<stop stop-color="#2BD45D" stop-opacity="0.5"/>
<stop offset="1" stop-color="white" stop-opacity="0"/>
</linearGradient>
</defs>
</svg>
