<svg width="250" height="142" viewBox="0 0 250 142" fill="none" xmlns="http://www.w3.org/2000/svg">
<path d="M-0.5 142C8 138.833 28.5 135.5 43.5 104.5C58.1173 74.291 85.5 74 103 87C124.288 102.814 163 127.5 196 82.5C222 47.0455 214 12 250 2" stroke="#E73030" stroke-width="3"/>
<path d="M43.5 104.5C28.5 135.5 8 138.833 -0.5 142L250 142L250 2C214 12 222 47.0455 196 82.5C163 127.5 124.288 102.814 103 87C85.5 74 58.1173 74.291 43.5 104.5Z" fill="url(#paint0_linear_2_11)"/>
<defs>
<linearGradient id="paint0_linear_2_11" x1="140.5" y1="52" x2="161.587" y2="154.958" gradientUnits="userSpaceOnUse">
<stop stop-color="#E73030" stop-opacity="0.5"/>
<stop offset="1" stop-color="white" stop-opacity="0"/>
</linearGradient>
</defs>
</svg>
